<mxfile modified="2020-12-15T09:17:35.869Z" host="e6216f2d-57bb-406c-99a3-350c4260efb4" agent="5.0 (Macintosh; Intel Mac OS X 11_0_0) AppleWebKit/537.36 (KHTML, like Gecko) Code/1.52.0 Chrome/83.0.4103.122 Electron/9.3.5 Safari/537.36" etag="iSJF2sMhB_kv7yL-YBK4" version="13.10.0" type="embed">
    <diagram id="csqqabgtmqgvthtSgO20" name="Page-1">
        <mxGraphModel dx="962" dy="497" grid="1" gridSize="10" guides="1" tooltips="1" connect="1" arrows="1" fold="1" page="1" pageScale="1" pageWidth="850" pageHeight="1100" math="0" shadow="0">
            <root>
                <mxCell id="0"/>
                <mxCell id="1" parent="0"/>
                <mxCell id="lCEBx5OaHAJliDRhZ6I8-3" value="management-api" style="shape=umlLifeline;perimeter=lifelinePerimeter;whiteSpace=wrap;html=1;container=1;collapsible=0;recursiveResize=0;outlineConnect=0;" parent="1" vertex="1">
                    <mxGeometry x="270" y="90" width="100" height="520" as="geometry"/>
                </mxCell>
                <mxCell id="buTujL9fgE8DlCfFrNa--29" value="" style="rounded=0;whiteSpace=wrap;html=1;" parent="lCEBx5OaHAJliDRhZ6I8-3" vertex="1">
                    <mxGeometry x="45" y="340" width="10" height="50" as="geometry"/>
                </mxCell>
                <mxCell id="lCEBx5OaHAJliDRhZ6I8-17" value="organization component onboarding" style="text;align=center;fontStyle=1;verticalAlign=middle;spacingLeft=3;spacingRight=3;strokeColor=#666666;rotatable=0;points=[[0,0.5],[1,0.5]];portConstraint=eastwest;fillColor=#f5f5f5;fontColor=#333333;" parent="1" vertex="1">
                    <mxGeometry x="60" y="40" width="760" height="26" as="geometry"/>
                </mxCell>
                <mxCell id="buTujL9fgE8DlCfFrNa--6" value="start" style="edgeStyle=none;rounded=0;orthogonalLoop=1;jettySize=auto;html=1;entryX=-0.007;entryY=0.021;entryDx=0;entryDy=0;entryPerimeter=0;" parent="1" source="lCEBx5OaHAJliDRhZ6I8-18" target="lCEBx5OaHAJliDRhZ6I8-23" edge="1">
                    <mxGeometry relative="1" as="geometry"/>
                </mxCell>
                <mxCell id="buTujL9fgE8DlCfFrNa--28" value="acknoweldge new xway&lt;br&gt;providing cert fp&lt;br&gt;via ui or cli&lt;br&gt;" style="edgeStyle=none;rounded=0;orthogonalLoop=1;jettySize=auto;html=1;entryX=0.25;entryY=0;entryDx=0;entryDy=0;" parent="1" target="buTujL9fgE8DlCfFrNa--29" edge="1">
                    <mxGeometry relative="1" as="geometry">
                        <mxPoint x="69.5" y="430" as="sourcePoint"/>
                        <Array as="points">
                            <mxPoint x="210" y="430"/>
                        </Array>
                    </mxGeometry>
                </mxCell>
                <mxCell id="lCEBx5OaHAJliDRhZ6I8-18" value="" style="shape=umlLifeline;participant=umlActor;perimeter=lifelinePerimeter;whiteSpace=wrap;html=1;container=1;collapsible=0;recursiveResize=0;verticalAlign=top;spacingTop=36;labelBackgroundColor=#ffffff;outlineConnect=0;" parent="1" vertex="1">
                    <mxGeometry x="60" y="90" width="20" height="520" as="geometry"/>
                </mxCell>
                <mxCell id="lCEBx5OaHAJliDRhZ6I8-23" value="inway/outway" style="html=1;points=[];perimeter=orthogonalPerimeter;shape=umlLifeline;participant=label;fontFamily=Helvetica;fontSize=12;fontColor=#000000;align=center;strokeColor=#000000;fillColor=#ffffff;recursiveResize=0;container=1;collapsible=0;" parent="1" vertex="1">
                    <mxGeometry x="120" y="160" width="100" height="450" as="geometry"/>
                </mxCell>
                <mxCell id="buTujL9fgE8DlCfFrNa--12" value="" style="rounded=0;whiteSpace=wrap;html=1;" parent="lCEBx5OaHAJliDRhZ6I8-23" vertex="1">
                    <mxGeometry x="45" y="50" width="10" height="140" as="geometry"/>
                </mxCell>
                <mxCell id="buTujL9fgE8DlCfFrNa--16" value="Generate&lt;br&gt;key and cert&lt;br&gt;" style="edgeStyle=none;rounded=0;orthogonalLoop=1;jettySize=auto;html=1;entryX=1.008;entryY=0.334;entryDx=0;entryDy=0;entryPerimeter=0;" parent="lCEBx5OaHAJliDRhZ6I8-23" target="buTujL9fgE8DlCfFrNa--12" edge="1">
                    <mxGeometry x="0.375" y="-43" relative="1" as="geometry">
                        <mxPoint x="57" y="90" as="targetPoint"/>
                        <mxPoint x="57" y="70" as="sourcePoint"/>
                        <Array as="points">
                            <mxPoint x="80" y="70"/>
                            <mxPoint x="80" y="97"/>
                        </Array>
                        <mxPoint x="40" y="28" as="offset"/>
                    </mxGeometry>
                </mxCell>
                <mxCell id="lCEBx5OaHAJliDRhZ6I8-29" value="directory" style="html=1;points=[];perimeter=orthogonalPerimeter;shape=umlLifeline;participant=label;fontFamily=Helvetica;fontSize=12;fontColor=#000000;align=center;strokeColor=#000000;fillColor=#ffffff;recursiveResize=0;container=1;collapsible=0;" parent="1" vertex="1">
                    <mxGeometry x="690" y="90" width="100" height="520" as="geometry"/>
                </mxCell>
                <mxCell id="buTujL9fgE8DlCfFrNa--1" value="config-api" style="html=1;points=[];perimeter=orthogonalPerimeter;shape=umlLifeline;participant=label;fontFamily=Helvetica;fontSize=12;fontColor=#000000;align=center;strokeColor=#000000;fillColor=#ffffff;recursiveResize=0;container=1;collapsible=0;" parent="1" vertex="1">
                    <mxGeometry x="560" y="90" width="100" height="520" as="geometry"/>
                </mxCell>
                <mxCell id="buTujL9fgE8DlCfFrNa--32" value="" style="rounded=0;whiteSpace=wrap;html=1;" parent="buTujL9fgE8DlCfFrNa--1" vertex="1">
                    <mxGeometry x="45" y="300" width="10" height="220" as="geometry"/>
                </mxCell>
                <mxCell id="buTujL9fgE8DlCfFrNa--20" value="" style="rounded=0;whiteSpace=wrap;html=1;" parent="buTujL9fgE8DlCfFrNa--1" vertex="1">
                    <mxGeometry x="45" y="190" width="10" height="60" as="geometry"/>
                </mxCell>
                <mxCell id="buTujL9fgE8DlCfFrNa--11" value="display cert fp" style="endArrow=classic;html=1;exitX=0.25;exitY=1;exitDx=0;exitDy=0;" parent="1" source="buTujL9fgE8DlCfFrNa--12" target="lCEBx5OaHAJliDRhZ6I8-18" edge="1">
                    <mxGeometry width="50" height="50" relative="1" as="geometry">
                        <mxPoint x="60" y="1070" as="sourcePoint"/>
                        <mxPoint x="110" y="1020" as="targetPoint"/>
                    </mxGeometry>
                </mxCell>
                <mxCell id="buTujL9fgE8DlCfFrNa--18" value="config&lt;br&gt;(postgres)" style="shape=umlLifeline;perimeter=lifelinePerimeter;whiteSpace=wrap;html=1;container=1;collapsible=0;recursiveResize=0;outlineConnect=0;" parent="1" vertex="1">
                    <mxGeometry x="430" y="90" width="100" height="520" as="geometry"/>
                </mxCell>
                <mxCell id="buTujL9fgE8DlCfFrNa--19" value="Register" style="edgeStyle=none;rounded=0;orthogonalLoop=1;jettySize=auto;html=1;entryX=0.25;entryY=0;entryDx=0;entryDy=0;" parent="1" source="buTujL9fgE8DlCfFrNa--12" target="buTujL9fgE8DlCfFrNa--20" edge="1">
                    <mxGeometry relative="1" as="geometry">
                        <mxPoint x="300" y="280" as="targetPoint"/>
                        <mxPoint x="175" y="275" as="sourcePoint"/>
                    </mxGeometry>
                </mxCell>
                <mxCell id="buTujL9fgE8DlCfFrNa--23" value="write xway identity&lt;br&gt;cert and fp&lt;br&gt;" style="edgeStyle=none;rounded=0;orthogonalLoop=1;jettySize=auto;html=1;" parent="1" source="buTujL9fgE8DlCfFrNa--20" target="buTujL9fgE8DlCfFrNa--18" edge="1">
                    <mxGeometry relative="1" as="geometry"/>
                </mxCell>
                <mxCell id="buTujL9fgE8DlCfFrNa--27" value="Registration complete" style="edgeStyle=none;rounded=0;orthogonalLoop=1;jettySize=auto;html=1;exitX=0.25;exitY=1;exitDx=0;exitDy=0;entryX=1.354;entryY=0.905;entryDx=0;entryDy=0;entryPerimeter=0;" parent="1" source="buTujL9fgE8DlCfFrNa--20" target="buTujL9fgE8DlCfFrNa--12" edge="1">
                    <mxGeometry relative="1" as="geometry"/>
                </mxCell>
                <mxCell id="buTujL9fgE8DlCfFrNa--30" value="Update xway&lt;br&gt;identity&lt;br&gt;set verfied&lt;br&gt;" style="edgeStyle=none;rounded=0;orthogonalLoop=1;jettySize=auto;html=1;exitX=1;exitY=0.5;exitDx=0;exitDy=0;entryX=-0.376;entryY=0.015;entryDx=0;entryDy=0;entryPerimeter=0;" parent="1" source="buTujL9fgE8DlCfFrNa--29" target="buTujL9fgE8DlCfFrNa--37" edge="1">
                    <mxGeometry relative="1" as="geometry">
                        <mxPoint x="449.5" y="455" as="targetPoint"/>
                    </mxGeometry>
                </mxCell>
                <mxCell id="buTujL9fgE8DlCfFrNa--31" style="edgeStyle=none;rounded=0;orthogonalLoop=1;jettySize=auto;html=1;exitX=0.25;exitY=1;exitDx=0;exitDy=0;" parent="1" source="buTujL9fgE8DlCfFrNa--29" edge="1">
                    <mxGeometry relative="1" as="geometry">
                        <mxPoint x="69.5" y="480" as="targetPoint"/>
                    </mxGeometry>
                </mxCell>
                <mxCell id="buTujL9fgE8DlCfFrNa--33" value="Watch for config" style="edgeStyle=none;rounded=0;orthogonalLoop=1;jettySize=auto;html=1;exitX=0.535;exitY=0.512;exitDx=0;exitDy=0;exitPerimeter=0;entryX=0.25;entryY=0;entryDx=0;entryDy=0;" parent="1" source="lCEBx5OaHAJliDRhZ6I8-23" target="buTujL9fgE8DlCfFrNa--32" edge="1">
                    <mxGeometry relative="1" as="geometry">
                        <mxPoint x="390" y="410" as="targetPoint"/>
                    </mxGeometry>
                </mxCell>
                <mxCell id="buTujL9fgE8DlCfFrNa--34" value="Watch config" style="edgeStyle=none;rounded=0;orthogonalLoop=1;jettySize=auto;html=1;entryX=0.75;entryY=0;entryDx=0;entryDy=0;" parent="1" target="buTujL9fgE8DlCfFrNa--35" edge="1">
                    <mxGeometry relative="1" as="geometry">
                        <mxPoint x="604" y="415" as="sourcePoint"/>
                        <mxPoint x="470" y="435" as="targetPoint"/>
                    </mxGeometry>
                </mxCell>
                <mxCell id="buTujL9fgE8DlCfFrNa--41" value="Push config" style="edgeStyle=none;rounded=0;orthogonalLoop=1;jettySize=auto;html=1;exitX=1;exitY=0.5;exitDx=0;exitDy=0;entryX=0.085;entryY=0.557;entryDx=0;entryDy=0;entryPerimeter=0;" parent="1" source="buTujL9fgE8DlCfFrNa--35" target="buTujL9fgE8DlCfFrNa--32" edge="1">
                    <mxGeometry relative="1" as="geometry">
                        <mxPoint x="600" y="513" as="targetPoint"/>
                    </mxGeometry>
                </mxCell>
                <mxCell id="buTujL9fgE8DlCfFrNa--35" value="" style="rounded=0;whiteSpace=wrap;html=1;" parent="1" vertex="1">
                    <mxGeometry x="475" y="415" width="10" height="190" as="geometry"/>
                </mxCell>
                <mxCell id="buTujL9fgE8DlCfFrNa--40" value="notify watch" style="edgeStyle=none;rounded=0;orthogonalLoop=1;jettySize=auto;html=1;exitX=0.75;exitY=1;exitDx=0;exitDy=0;" parent="1" source="buTujL9fgE8DlCfFrNa--37" edge="1">
                    <mxGeometry x="-1" y="-10" relative="1" as="geometry">
                        <mxPoint x="467.51955307262574" y="489.9944134078213" as="sourcePoint"/>
                        <mxPoint x="470" y="490" as="targetPoint"/>
                        <mxPoint as="offset"/>
                    </mxGeometry>
                </mxCell>
                <mxCell id="buTujL9fgE8DlCfFrNa--37" value="" style="rounded=0;whiteSpace=wrap;html=1;" parent="1" vertex="1">
                    <mxGeometry x="440" y="455" width="10" height="35" as="geometry"/>
                </mxCell>
                <mxCell id="buTujL9fgE8DlCfFrNa--43" value="Register inway" style="edgeStyle=none;rounded=0;orthogonalLoop=1;jettySize=auto;html=1;exitX=1.393;exitY=0.642;exitDx=0;exitDy=0;entryX=0.509;entryY=0.849;entryDx=0;entryDy=0;entryPerimeter=0;exitPerimeter=0;" parent="1" source="buTujL9fgE8DlCfFrNa--32" target="lCEBx5OaHAJliDRhZ6I8-29" edge="1">
                    <mxGeometry relative="1" as="geometry"/>
                </mxCell>
                <mxCell id="buTujL9fgE8DlCfFrNa--44" value="self-init" style="endArrow=classic;html=1;entryX=0.75;entryY=0;entryDx=0;entryDy=0;startArrow=oval;startFill=1;" parent="1" target="buTujL9fgE8DlCfFrNa--12" edge="1">
                    <mxGeometry width="50" height="50" relative="1" as="geometry">
                        <mxPoint x="240" y="210" as="sourcePoint"/>
                        <mxPoint x="295" y="185" as="targetPoint"/>
                    </mxGeometry>
                </mxCell>
            </root>
        </mxGraphModel>
    </diagram>
</mxfile>
